<svg id="Line" enable-background="new 0 0 32 32" height="512" viewBox="0 0 32 32" width="512" xmlns="http://www.w3.org/2000/svg"><path id="XMLID_91_" d="m23 15c0 .552-.448 1-1 1v3c0 3.309-2.691 6-6 6s-6-2.691-6-6v-3c-.552 0-1-.448-1-1s.448-1 1-1h2c.552 0 1 .448 1 1s-.448 1-1 1v3c0 2.206 1.794 4 4 4s4-1.794 4-4v-3c-.552 0-1-.448-1-1s.448-1 1-1h2c.552 0 1 .448 1 1z"/><path id="XMLID_1029_" d="m26.937 5.65c-.096-.256-.292-.461-.542-.569l-7-3c-.487-.209-1.052-.001-1.289.472l-2.514 5.029c-.864-4.517-2.887-5.582-4.592-5.582-2.715 0-4.48 2.902-4.909 8h-1.091c-.285 0-.556.121-.745.333-.19.212-.28.495-.249.777l1.703 15.331c.226 2.029 1.935 3.559 3.976 3.559h12.63c2.042 0 3.75-1.53 3.975-3.559l1.704-15.331c.032-.283-.059-.565-.249-.777-.189-.212-.46-.333-.745-.333h-1.823l1.723-3.565c.119-.246.132-.53.037-.785zm-7.464-1.359 5.172 2.216-1.689 3.493h-6.338zm-8.473-.291c1.511 0 2.572 2.221 2.904 6h-5.806c.338-3.68 1.44-6 2.902-6zm14.883 8-1.581 14.221c-.112 1.014-.967 1.779-1.987 1.779h-12.63c-1.021 0-1.875-.765-1.988-1.779l-1.58-14.221z"/></svg>