<svg id="Capa_1" enable-background="new 0 0 511.955 511.955" height="512" viewBox="0 0 511.955 511.955" width="512" xmlns="http://www.w3.org/2000/svg"><g><path d="m262.618 150.655 60.025 17.315h.001c1.956.564 3.947.844 5.928.844 3.55 0 7.063-.898 10.257-2.662 4.976-2.748 8.584-7.269 10.159-12.73 3.252-11.274-3.274-23.091-14.547-26.343l-60.026-17.315c-5.457-1.575-11.208-.93-16.185 1.818-4.976 2.748-8.584 7.269-10.159 12.73-3.252 11.272 3.274 23.09 14.547 26.343zm-.136-22.188c.465-1.612 1.53-2.946 2.999-3.757 1.47-.812 3.167-1.001 4.778-.537l60.025 17.315c3.328.96 5.254 4.449 4.294 7.777-.465 1.612-1.53 2.946-2.999 3.757-1.47.812-3.166 1.002-4.779.537h.001l-60.025-17.315c-3.328-.96-5.254-4.448-4.294-7.777z"/><path d="m474.643 401.083c-3.843-10.133-12.161-22.778-30.124-30.32 6.936-8.664 15.075-23.37 15.075-44.708 0-4.142-3.357-7.499-7.499-7.499s-7.499 3.357-7.499 7.499c0 16.096-5.682 27.273-10.729 34.032-6.516-15.2-17.753-25.956-32.528-30.804-1.455-.477-2.935-.895-4.437-1.254v-146.152c0-2.44-1.186-4.726-3.181-6.131s-4.546-1.752-6.845-.93l-7.059 2.526c4.412-28.96 2.733-57.096-4.941-80.383-9.275-28.142-26.608-47.167-48.805-53.571-23.937-6.906-50.437 1.442-74.619 23.504-13.127 11.977-24.751 27.278-34.258 44.846l-8.968-14.346c-6.293-10.071-9.619-21.662-9.619-33.521v-13.956c7.814-4.706 13.053-13.271 13.053-23.039-.002-14.819-12.059-26.876-26.878-26.876h-85.317c-14.819 0-26.876 12.057-26.876 26.876 0 9.766 5.237 18.33 13.05 23.037v13.959c0 11.859-3.326 23.451-9.621 33.524l-5.449 8.729c-2.193 3.513-1.123 8.139 2.39 10.333 3.515 2.193 8.139 1.123 10.333-2.39l5.447-8.726c7.784-12.456 11.898-26.796 11.898-41.469v-10.12h82.97v10.119c0 14.673 4.114 29.012 11.899 41.47l13.403 21.44c.183.294.351.584.528.876-3.905 8.934-7.296 18.307-10.097 28.014-2.963 10.265-5.182 20.64-6.637 30.958l-33.005-11.812c-1.634-.585-3.42-.585-5.054 0l-55.526 19.872-33.396-11.953v-22.427c0-7.353 1.263-14.572 3.752-21.457 1.408-3.895-.607-8.194-4.502-9.602-3.894-1.407-8.194.607-9.602 4.502-3.083 8.525-4.646 17.461-4.646 26.557v17.059l-7.131-2.552c-2.297-.822-4.85-.476-6.845.93-1.994 1.405-3.181 3.691-3.181 6.131v322.559c0 4.142 3.357 7.499 7.499 7.499 0 0 346.703.043 347.854 0h.483c.372 0 .734-.036 1.092-.088 16.731-.911 33.351-6.362 47.929-16.553 3.395-2.373 4.223-7.048 1.849-10.443-2.371-3.394-7.049-4.222-10.442-1.849-29.326 20.5-68.483 18.159-95.21-5.024 15.724-18.006 24.314-40.816 24.314-64.948 0-20.799-6.381-40.615-18.209-57.221 17.769-12.731 39.517-17.664 55.939-12.275 13.536 4.442 22.744 15.617 26.629 32.318.647 2.784 2.821 4.957 5.605 5.605 15.974 3.717 26.944 12.343 31.723 24.945 6.181 16.298 1.686 38.79-11.452 57.299-2.397 3.378-1.602 8.059 1.775 10.456 1.317.935 2.833 1.384 4.333 1.384 2.347 0 4.661-1.099 6.122-3.159 16.192-22.819 21.268-50.139 13.243-71.3zm-375.178-386.085h85.316c6.549 0 11.878 5.328 11.878 11.878s-5.328 11.878-11.878 11.878h-85.316c-6.549 0-11.878-5.328-11.878-11.878s5.329-11.878 11.878-11.878zm114.284 144.831c9.656-33.467 26.635-62.538 47.809-81.857 20.183-18.414 41.612-25.58 60.352-20.173 17.292 4.989 31.042 20.563 38.719 43.856 7.649 23.209 8.662 52.006 2.952 81.497l-32.244 11.538-55.535-19.873c-1.635-.585-3.419-.585-5.054 0l-55.526 19.873-8.076-2.89c1.333-10.63 3.54-21.357 6.603-31.971zm98.7 337.108c3.991-2.504 7.819-5.308 11.459-8.398 3.485 3.102 7.152 5.904 10.969 8.398zm6.908-24.576c-15.848 15.848-36.918 24.576-59.331 24.576-22.412 0-43.483-8.728-59.331-24.576-19.719-19.719-29.208-48.477-23.076-69.935 4.468-15.634 16.78-26.214 35.604-30.595 2.783-.648 4.956-2.821 5.604-5.604 4.381-18.825 14.961-31.137 30.596-35.605 4.365-1.247 9.032-1.848 13.863-1.848 18.92 0 40.363 9.217 56.07 24.924 15.849 15.848 24.577 36.919 24.577 59.331.001 22.414-8.727 43.484-24.576 59.332zm10.606-129.267c-23.765-23.764-57.787-34.572-84.66-26.891-17.099 4.887-29.977 16.874-37.162 34.285-5.602-7.25-12.204-19.605-12.204-37.606 0-4.142-3.357-7.499-7.499-7.499s-7.499 3.357-7.499 7.499c0 23.264 9.06 39.125 16.544 48.263-17.411 7.185-29.398 20.062-34.284 37.161-7.68 26.874 3.127 60.896 26.891 84.661 5.366 5.366 11.242 10.035 17.515 13.971h-159.041v-304.412l48.027 17.189c1.634.585 3.42.585 5.054 0l55.526-19.873 55.526 19.873c1.634.585 3.42.585 5.054 0l55.526-19.873 55.535 19.873c1.634.584 3.419.585 5.054 0l48.037-17.19v133.839c-16.942.082-35.143 6.373-50.801 17.896-.378-.39-.754-.781-1.139-1.166z"/></g></svg>