<svg id="Capa_1" enable-background="new 0 0 512 512" height="512" viewBox="0 0 512 512" width="512" xmlns="http://www.w3.org/2000/svg"><g><path d="m225.138 246.503v-89.063c0-13.66-3.839-27.046-11.079-38.63l-13.813-22.1c-7.24-11.584-11.079-24.97-11.079-38.63v-18.15l-50.472-19.964-50.472 19.963v18.15c0 13.66-3.839 27.046-11.079 38.63l-13.813 22.1c-7.24 11.584-11.079 24.97-11.079 38.63v89.063" fill="#90d8f9"/><path d="m116.371 39.927v18.152c0 13.66-1.7 27.042-4.904 38.632l-6.109 22.097c-3.204 11.579-4.904 24.972-4.904 38.632v89.059h-48.201v-89.059c0-13.66 3.843-27.052 11.085-38.632l13.815-22.097c7.232-11.59 11.074-24.972 11.074-38.632v-18.152z" fill="#75cef9"/><g><ellipse cx="287.38" cy="178.549" fill="#f6e266" rx="139.616" ry="85.663" transform="matrix(.277 -.961 .961 .277 36.175 405.183)"/><g fill="#ffd064"><path d="m248.688 312.698c-45.463-13.115-64.987-83.803-43.615-157.891s75.545-123.518 121.008-110.404c-21.159-6.104-55.641 49.006-77.013 123.094s-21.539 139.097-.38 145.201z"/><path d="m326.828 157.911-61.844-17.84c-7.534-2.173-11.88-10.043-9.707-17.577 2.173-7.534 10.043-11.88 17.577-9.707l61.844 17.84c7.534 2.173 11.88 10.043 9.707 17.577-2.173 7.535-10.042 11.881-17.577 9.707z"/></g></g><path d="m393.468 179.664v332.336h-358.894v-332.336l42.567 15.236 17.245 6.171 59.812-21.407 59.812 21.407 59.813-21.407 59.822 21.407z" fill="#d8a595"/><path d="m77.141 194.9v317.1h-42.567v-332.336z" fill="#d09080"/><path d="m182.647.001h-87.903c-11.026 0-19.964 8.938-19.964 19.964 0 11.026 8.938 19.964 19.964 19.964h87.903c11.026 0 19.964-8.938 19.964-19.964 0-11.026-8.938-19.964-19.964-19.964z" fill="#e28086"/><path d="m121.735 34.078c3.616 3.616 8.602 5.851 14.124 5.851h-41.114c-5.512 0-10.497-2.236-14.113-5.851-3.616-3.606-5.851-8.602-5.851-14.113-.001-11.023 8.941-19.965 19.964-19.965h41.114c-11.033 0-19.965 8.942-19.965 19.965 0 5.511 2.236 10.508 5.841 14.113z" fill="#dd636e"/><g><path d="m435.917 385.491c-2.426 0-4.814-1.138-6.319-3.271-2.453-3.474-1.636-8.275 1.822-10.744.863-.629 18.914-14.147 18.914-43.265 0-4.267 3.459-7.726 7.726-7.726s7.726 3.459 7.726 7.726c0 37.485-24.383 55.131-25.422 55.864-1.352.957-2.908 1.416-4.447 1.416z" fill="#785252"/><path d="m435.909 377.764c55.566 12.932 49.726 74.3 15.478 108.549-34.249 34.249-89.777 34.249-124.026 0s-34.249-89.777 0-124.026 95.617-40.089 108.548 15.477z" fill="#f6e266"/><path d="m407.88 510.035c-28.134 6.047-58.658-1.865-80.519-23.725-34.243-34.253-34.243-89.78 0-124.023 21.077-21.077 52.415-31.4 76.429-23.272-14.278 3.997-28.289 12.136-39.425 23.272-34.253 34.243-34.253 89.77 0 124.023 12.393 12.393 27.568 20.305 43.515 23.725z" fill="#ffd064"/></g><g><path d="m210.2 367.851c-59.669 13.887-53.399 79.787-16.621 116.565s96.407 36.778 133.185 0 36.778-96.407 0-133.185-102.677-43.049-116.564 16.62z" fill="#95d6a4"/><path d="m238.334 484.416c12.651 12.651 28.011 20.954 44.215 24.9-30.885 7.52-64.839-.773-88.966-24.9-36.777-36.777-43.051-102.678 16.617-116.565 9.189-39.466 41.125-50.087 72.35-42.104-15.978 4.09-31.771 13.042-44.215 25.487-36.778 36.778-36.778 96.404-.001 133.182z" fill="#78c2a4"/><path d="m210.193 375.578c-1.54 0-3.096-.459-4.45-1.415-1.105-.78-27.056-19.562-27.056-59.524 0-4.267 3.459-7.726 7.726-7.726s7.726 3.459 7.726 7.726c0 32.044 20.31 46.755 20.516 46.9 3.486 2.461 4.316 7.282 1.856 10.768-1.505 2.132-3.893 3.271-6.318 3.271z" fill="#785252"/></g></g></svg>