<svg id="Glyph" enable-background="new 0 0 32 32" height="512" viewBox="0 0 32 32" width="512" xmlns="http://www.w3.org/2000/svg"><path id="XMLID_389_" d="m4.017 11c0 .037-.015.073-.011.11l1.703 15.331c.226 2.029 1.935 3.559 3.976 3.559h12.63c2.042 0 3.75-1.53 3.975-3.559l1.704-15.331c.004-.038-.011-.073-.011-.11zm17.983 5v3c0 3.309-2.691 6-6 6s-6-2.691-6-6v-3c-.552 0-1-.448-1-1s.448-1 1-1h2c.552 0 1 .448 1 1s-.448 1-1 1v3c0 2.206 1.794 4 4 4s4-1.794 4-4v-3c-.552 0-1-.448-1-1s.448-1 1-1h2c.552 0 1 .448 1 1s-.448 1-1 1z"/><path id="XMLID_392_" d="m16.5 9 3.287-6.573c.12-.24.406-.344.652-.239l6.075 2.604c.265.114.382.425.256.685l-1.703 3.523z"/><path id="XMLID_393_" d="m7.097 9c.353-4.006 1.621-7 3.903-7 2.398 0 3.567 2.994 3.906 7z"/></svg>