<svg id="Capa_1" enable-background="new 0 0 512.003 512.003" height="512" viewBox="0 0 512.003 512.003" width="512" xmlns="http://www.w3.org/2000/svg"><g><path d="m105.458 56.988c-1.802-6.489-7.72-10.986-14.458-10.986h-76c-8.291 0-15 6.709-15 15s6.709 15 15 15h64.604l8.331 30 19.94 30 11.197-30z" fill="#b5dbff"/><path d="m508.982 111.963c-2.842-3.75-7.28-5.962-11.982-5.962h-196-181.928-31.137l63.607 229.014c1.802 6.489 7.72 10.986 14.458 10.986h135 135c6.694 0 12.583-4.438 14.429-10.884l61-210c1.289-4.526.381-9.389-2.447-13.154z" fill="#edf5ff"/><path d="m450.429 335.118 61-210c1.289-4.526.381-9.39-2.446-13.154-2.842-3.75-7.28-5.962-11.982-5.962h-196.001v240h135c6.694 0 12.583-4.439 14.429-10.884z" fill="#d5e8fe"/><path d="m211 466.002c-24.814 0-45-20.186-45-45s20.186-45 45-45 45 20.186 45 45-20.186 45-45 45z" fill="#5b362a"/><path d="m391 466.002c-24.814 0-45-20.186-45-45s20.186-45 45-45 45 20.186 45 45-20.186 45-45 45z" fill="#38211a"/><circle cx="211" cy="421.002" fill="#edf5ff" r="15"/><circle cx="391" cy="421.002" fill="#d5e8fe" r="15"/><g fill="#d5e8fe"><path d="m406 196.002h-105-105c-8.291 0-15 6.709-15 15s6.709 15 15 15h105 105c8.291 0 15-6.709 15-15s-6.709-15-15-15z"/><path d="m376 256.002h-75-75c-8.291 0-15 6.709-15 15s6.709 15 15 15h75 75c8.291 0 15-6.709 15-15s-6.709-15-15-15z"/></g><g fill="#b5dbff"><path d="m421 211.002c0-8.291-6.709-15-15-15h-105v30h105c8.291 0 15-6.709 15-15z"/><path d="m391 271.002c0-8.291-6.709-15-15-15h-75v30h75c8.291 0 15-6.709 15-15z"/></g></g></svg>