<svg id="Capa_1" enable-background="new 0 0 512 512" height="512" viewBox="0 0 512 512" width="512" xmlns="http://www.w3.org/2000/svg"><g><path d="m15 76h64.599c2.362 8.502 68.818 247.745 71.949 259.015 1.803 6.492 7.714 10.985 14.452 10.985h270c6.673 0 12.543-4.408 14.405-10.816l61-210c1.316-4.531.423-9.417-2.41-13.191s-7.277-5.993-11.995-5.993h-377.932l-13.615-49.015c-1.804-6.492-7.715-10.985-14.453-10.985h-76c-8.284 0-15 6.716-15 15s6.716 15 15 15zm462.023 60-52.286 180h-247.336l-50-180z"/><path d="m256 421c0-24.813-20.187-45-45-45s-45 20.187-45 45 20.187 45 45 45 45-20.187 45-45zm-60 0c0-8.271 6.729-15 15-15s15 6.729 15 15-6.729 15-15 15-15-6.729-15-15z"/><path d="m436 421c0-24.813-20.187-45-45-45s-45 20.187-45 45 20.187 45 45 45 45-20.187 45-45zm-60 0c0-8.271 6.729-15 15-15s15 6.729 15 15-6.729 15-15 15-15-6.729-15-15z"/><path d="m196 226h210c8.284 0 15-6.716 15-15s-6.716-15-15-15h-210c-8.284 0-15 6.716-15 15s6.716 15 15 15z"/><path d="m376 256h-150c-8.284 0-15 6.716-15 15s6.716 15 15 15h150c8.284 0 15-6.716 15-15s-6.716-15-15-15z"/></g></svg>