<svg fill="none" height="512" viewBox="0 0 22 28" width="512" xmlns="http://www.w3.org/2000/svg" xmlns:xlink="http://www.w3.org/1999/xlink"><linearGradient id="paint0_linear" gradientUnits="userSpaceOnUse" x1="0" x2="26.924" y1="28" y2="6.558"><stop offset="0" stop-color="#023e8a"/><stop offset="1" stop-color="#00b4d8"/></linearGradient><g id="User"><g id="User_2"><g id="Group 5"><path id="Union" clip-rule="evenodd" d="m11 0c-3.31371 0-6 2.68629-6 6s2.68629 6 6 6c3.3137 0 6-2.68629 6-6s-2.6863-6-6-6zm-4 6c0-2.20914 1.79086-4 4-4 2.2091 0 4 1.79086 4 4s-1.7909 4-4 4c-2.20914 0-4-1.79086-4-4zm14 22c.2652 0 .5196-.1054.7071-.2929s.2929-.4419.2929-.7071v-7c0-3.3137-2.6863-6-6-6h-10c-3.31371 0-6 2.6863-6 6v7c0 .5523.447716 1 1 1zm-1-8v6h-18v-6c0-2.2091 1.79086-4 4-4h10c2.2091 0 4 1.7909 4 4z" fill="url(#paint0_linear)" fill-rule="evenodd"/></g></g></g></svg>